inDegrees=yes
name=ik_S51_A08_T02
DataType=double
version=3
OpenSimVersion=4.3-2021-08-27-4bc7ad9
endheader
time	pelvis_tilt	pelvis_list	pelvis_rotation	pelvis_tx	pelvis_ty	pelvis_tz	hip_flexion_r	hip_adduction_r	hip_rotation_r	knee_angle_r	knee_angle_r_beta	ankle_angle_r	subtalar_angle_r	mtp_angle_r	hip_flexion_l	hip_adduction_l	hip_rotation_l	knee_angle_l	knee_angle_l_beta	ankle_angle_l	subtalar_angle_l	mtp_angle_l	lumbar_extension	lumbar_bending	lumbar_rotation	arm_flex_r	arm_add_r	arm_rot_r	elbow_flex_r	pro_sup_r	wrist_flex_r	wrist_dev_r	arm_flex_l	arm_add_l	arm_rot_l	elbow_flex_l	pro_sup_l	wrist_flex_l	wrist_dev_l
13.07999999999981	-2.697374843103039	0.2683500237479922	21.42884115486882	0	0.9399999999999999	0	40.24621088591337	-10.398840113392	-10.28392153102377	45.73213727687966	0.7981763694555837	0	0	0	40.24621088591337	-10.398840113392	-10.28392153102377	45.73213727687966	0.7981763694555837	0	0	0	-2.552666366246221	0.6371282255444894	0.6646628213282665	7.526570095268305	-17.72935264431498	-13.7541347926317	73.34697499997957	121.438366734932	0	0	75.61172163851926	-18.87372400044305	-12.77962520023138	106.3502554733647	103.9581886819762	0	0
13.09999999999981	-2.650982811518818	0.3149500718130575	21.38321759242301	0	0.9399999999999999	0	40.24739182352304	-10.39849798597648	-10.28376491273475	45.73371516447347	0.798203908789322	0	0	0	40.24739182352304	-10.39849798597648	-10.28376491273475	45.73371516447347	0.798203908789322	0	0	0	-2.492371097100408	0.6640308408728727	0.6563925198736723	7.475711822327156	-17.85613211181959	-13.72480420203676	73.30404582107086	121.410579507473	0	0	75.460652613623	-18.91212828484423	-12.84750386421546	106.3587590110514	103.9550428948542	0	0
13.11999999999981	-2.625736648501491	0.349379621377677	21.33751340688396	0	0.9399999999999999	0	40.25104071633882	-10.39743248536498	-10.28327836364059	45.73855062296087	0.7982883034607707	0	0	0	40.25104071633882	-10.39743248536498	-10.28327836364059	45.73855062296087	0.7982883034607707	0	0	0	-2.456364799879466	0.684468326014726	0.673118167305306	7.424152826204057	-17.94128571317379	-13.70826470335808	73.29830176163271	121.4060847892263	0	0	77.86581100570803	-18.8199545694325	-12.26496813613914	106.3831412688685	105.0019270688146	0	0
13.13999999999981	-2.572118435094506	0.4308240344093952	21.28095317910068	0	0.9399999999999999	0	40.25274285118573	-10.39693807703426	-10.2830521422124	45.74081497136022	0.7983278237957515	0	0	0	40.25274285118573	-10.39693807703426	-10.2830521422124	45.74081497136022	0.7983278237957515	0	0	0	-2.376605396664993	0.7415879577087526	0.6465238391472384	7.297060980592519	-18.04587605187465	-13.61559680295308	73.28073547556538	121.4380145012411	0	0	78.8945339969889	-18.87720989786047	-12.10898946510552	106.3686354409396	105.4043102531168	0	0
13.15999999999981	-2.532126430986526	0.4876087052715288	21.2313512495732	0	0.9399999999999999	0	40.25472144437113	-10.39636332719392	-10.28278912384089	45.7434448720066	0.7983737242210313	0	0	0	40.25472144437113	-10.39636332719392	-10.28278912384089	45.7434448720066	0.7983737242210313	0	0	0	-2.318889202397022	0.7794414605698344	0.6511830558897873	7.195810315719919	-18.15040141858864	-13.62547148186276	73.26864977457218	121.4224084043362	0	0	79.97892959634555	-18.86294753547623	-11.92377478452378	106.2040625034776	105.7779142279766	0	0
13.17999999999981	-2.516017818542736	0.5118677788389464	21.17282877577411	0	0.9399999999999999	0	40.25684970546016	-10.39574696108061	-10.28250671950846	45.74627901682689	0.7984231893796236	0	0	0	40.25684970546016	-10.39574696108061	-10.28250671950846	45.74627901682689	0.7984231893796236	0	0	0	-2.295030912945262	0.7945473285461606	0.681188392339885	7.147971664567398	-18.18481383084552	-13.60856394176126	73.2582122679878	121.43450546043	0	0	81.1310944261443	-18.76334739975307	-11.55170297195306	104.9924193915972	105.8342046734107	0	0
13.19999999999981	-2.490476842739098	0.556871182444436	21.16535003311967	0	0.9399999999999999	0	40.25831441959653	-10.39532396037818	-10.28231269821615	45.74823331656174	0.7984572983445678	0	0	0	40.25831441959653	-10.39532396037818	-10.28231269821615	45.74823331656174	0.7984572983445678	0	0	0	-2.254611404502913	0.8279605166459945	0.6572378298995407	7.077650139342197	-18.23668704644921	-13.56847706274259	73.25395285777479	121.4607923156266	0	0	82.24262855777224	-18.81290873779285	-11.38116404566229	105.8853632441308	106.5923481701139	0	0
13.21999999999981	-2.454809845037583	0.6182909667661323	21.09670204271096	0	0.9399999999999999	0	40.26088247215888	-10.39458013516846	-10.28197180180307	45.75164749332029	0.7985168869702495	0	0	0	40.26088247215888	-10.39458013516846	-10.28197180180307	45.75164749332029	0.7985168869702495	0	0	0	-2.198771257282355	0.8712988367101939	0.6687832139352237	6.960596299637883	-18.28871191599637	-13.4795571498038	73.24116059967533	121.4788311921394	0	0	83.19055705061466	-18.73204085937465	-11.02267646337052	104.8001948984827	106.6979383352256	0	0
13.23999999999981	-2.444261095928375	0.6426264435374278	21.08331480769673	0	0.9399999999999999	0	40.26465303741659	-10.39348679407777	-10.28147076834211	45.7566483420514	0.7986041682460014	0	0	0	40.26465303741659	-10.39348679407777	-10.28147076834211	45.7566483420514	0.7986041682460014	0	0	0	-2.180001708129343	0.8891712721259966	0.6753099955095028	6.910969063886894	-18.31655071433007	-13.45538314340101	73.22949741497251	121.5247815762607	0	0	85.22005145087365	-18.63182336030602	-10.39877572395399	104.8045802013567	107.5426483284398	0	0
13.25999999999981	-2.410935619043533	0.6909961210128223	21.10122621050848	0	0.9399999999999999	0	40.26576571066556	-10.39317248100776	-10.28132541409483	45.7581582459748	0.7986305210408535	0	0	0	40.26576571066556	-10.39317248100776	-10.28132541409483	45.7581582459748	0.7986305210408535	0	0	0	-2.130829042934546	0.9243708235551261	0.6177632093356294	6.808364284354333	-18.36414024127169	-13.37558695295744	73.24350773786	121.5630621206048	0	0	85.13545739559044	-18.71759763466926	-10.53472241333516	105.6583361606684	107.9886860447629	0	0
13.27999999999981	-2.392342172339573	0.7269305498161369	21.0857626104581	0	0.9399999999999999	0	40.26712700247969	-10.39278141160163	-10.28114558243007	45.75997671526218	0.7986622593172648	0	0	0	40.26712700247969	-10.39278141160163	-10.28114558243007	45.75997671526218	0.7986622593172648	0	0	0	-2.100499725802111	0.9511778950085158	0.6162334707374555	6.71132632381513	-18.40292214685557	-13.36394072309095	73.24488986857575	121.5892863895044	0	0	86.00458985318579	-18.70903643139567	-10.30205491200349	105.8456260537313	108.3236800611054	0	0
13.29999999999981	-2.371584652224715	0.7610170542494947	21.00818573868409	0	0.9399999999999999	0	40.26955969322285	-10.39208101729566	-10.28082369041828	45.76321696988087	0.7987188124289638	0	0	0	40.26955969322285	-10.39208101729566	-10.28082369041828	45.76321696988087	0.7987188124289638	0	0	0	-2.068532041835147	0.9725698119102956	0.6633124495397444	6.627344744304108	-18.43100206023878	-13.30582427707339	73.23114098506913	121.5874033179484	0	0	87.65833973439702	-18.47766444573563	-9.619412797703101	104.086055530279	108.4970431631101	0	0
13.3199999999998	-2.361545689681776	0.7802285324404742	21.03638630305902	0	0.9399999999999999	0	40.2711120825562	-10.39163734610613	-10.28061924296899	45.7652971741993	0.7987551188434346	0	0	0	40.2711120825562	-10.39163734610613	-10.28061924296899	45.7652971741993	0.7987551188434346	0	0	0	-2.050847881139878	0.9896068720296457	0.5859491212191589	6.5880615317983	-18.46046864953476	-13.25068740832263	73.255135540513	121.5859532686989	0	0	88.38002284097846	-18.51058821658547	-9.513865322228453	105.6361044033796	110.1871527267059	0	0
13.3399999999998	-2.340985508995403	0.8187120869320261	21.00423294395481	0	0.9399999999999999	0	40.28583965901903	-10.38854698161417	-10.27896011659136	45.78565927613891	0.7991105045649075	0	0	0	40.28583965901903	-10.38854698161417	-10.27896011659136	45.78565927613891	0.7991105045649075	0	0	0	-2.017598454874775	1.019220231550222	0.5843170790185916	6.47139657033097	-18.50840158011729	-13.19057703983577	73.26082055989755	121.5331832669316	0	0	88.29182211697605	-18.5153413306433	-9.572035163090636	105.6177461451775	110.2149137735835	0	0
13.3599999999998	-2.315864412586532	0.846678424585352	20.96113869767523	0	0.9399999999999999	0	40.28789263578297	-10.38795968241581	-10.27868942967009	45.78839603125445	0.7991582699524946	0	0	0	40.28789263578297	-10.38795968241581	-10.27868942967009	45.78839603125445	0.7991582699524946	0	0	0	-1.98402738810006	1.035682897841354	0.5893369543355479	6.380871951480018	-18.55251961167613	-13.1508909946207	73.25623672584337	121.4689233690432	0	0	89.47449621609913	-18.37867115499962	-9.092523861800457	105.4118951835678	110.9903235233801	0	0
13.3799999999998	-2.309983289835031	0.8788866864541499	20.92233327924438	0	0.9399999999999999	0	40.29011455741071	-10.38732572992574	-10.27839692557494	45.79136265514997	0.7992100473071396	0	0	0	40.29011455741071	-10.38732572992574	-10.27839692557494	45.79136265514997	0.7992100473071396	0	0	0	-1.967124119391291	1.063309197105179	0.6031168800767052	6.288872110269835	-18.60147481663314	-13.11604097431116	73.28185380944349	121.4211154508573	0	0	90.00042367276787	-18.3017082208015	-8.893060037375632	104.7792431124342	111.0713209107742	0	0
13.3999999999998	-2.311355700529424	0.8930842645497282	20.9151742476382	0	0.9399999999999999	0	40.29143121263404	-10.38695144431	-10.27822399209348	45.79312541423294	0.799240813257057	0	0	0	40.29143121263404	-10.38695144431	-10.27822399209348	45.79312541423294	0.799240813257057	0	0	0	-1.963215916911787	1.077251883451901	0.5976712821227018	6.254727442994474	-18.61226128395164	-13.09342495416938	73.32071896246401	121.4236253392799	0	0	90.48737984438	-18.31808282711521	-8.818564179602937	105.1097542323164	111.2551806149099	0	0
13.4199999999998	-2.294974372677359	0.9232235865808115	20.88506652897141	0	0.9399999999999999	0	40.29322007807981	-10.38644295352898	-10.27798901447562	45.7955189350181	0.7992825880754729	0	0	0	40.29322007807981	-10.38644295352898	-10.27798901447562	45.7955189350181	0.7992825880754729	0	0	0	-1.936930577611276	1.0999214272946	0.5873832009683836	6.151974776765326	-18.66599048279675	-13.07320695292316	73.36469314790918	121.4351269652381	0	0	90.890446063836	-18.37453274035106	-8.698895324413067	104.6786788853957	111.1739461780932	0	0
13.4399999999998	-2.285108556957591	0.954551277148882	20.88802956984602	0	0.9399999999999999	0	40.29370675988859	-10.38630768960355	-10.27792602194698	45.79618329613825	0.7992941833644418	0	0	0	40.29370675988859	-10.38630768960355	-10.27792602194698	45.79618329613825	0.7992941833644418	0	0	0	-1.916457871205071	1.125805550759228	0.5841737254427763	6.060640175831477	-18.69414856786376	-13.07718344846137	73.36419622529417	121.4466310194703	0	0	91.20399706037972	-18.39921888416333	-8.697206215968659	104.7177675919734	111.1941969181658	0	0
13.4599999999998	-2.295649346119307	0.948885353347124	20.89074231785021	0	0.9399999999999999	0	40.29487979640678	-10.38597583909396	-10.27777239762282	45.79775850868068	0.7993216760097259	0	0	0	40.29487979640678	-10.38597583909396	-10.27777239762282	45.79775850868068	0.7993216760097259	0	0	0	-1.928049093775635	1.124732083228274	0.5698131789140175	6.057517888109665	-18.67033867040709	-13.05394410573126	73.41835236148577	121.4644029056507	0	0	91.5983341729184	-18.447736572335	-8.634606087508294	105.0366020950517	111.3436401618975	0	0
13.4799999999998	-2.286637260974985	0.9690221803048591	20.89393096440002	0	0.9399999999999999	0	40.29538652512058	-10.38583531534786	-10.2777068959904	45.79845110291338	0.7993337640594668	0	0	0	40.29538652512058	-10.38583531534786	-10.2777068959904	45.79845110291338	0.7993337640594668	0	0	0	-1.912246655885937	1.140677303096602	0.5589461257131807	5.983749878268719	-18.69912441327979	-13.07374212089309	73.40951277650997	121.475265189101	0	0	91.83124036795607	-18.51528574814268	-8.555955305068936	105.1307693573867	111.4143418658472	0	0
13.4999999999998	-2.294278994813558	0.964792236768152	20.91295411655046	0	0.9399999999999999	0	40.29637040487642	-10.38555736791029	-10.27757814031379	45.79977283902559	0.7993568327064675	0	0	0	40.29637040487642	-10.38555736791029	-10.27757814031379	45.79977283902559	0.7993568327064675	0	0	0	-1.920480608565653	1.140198045225632	0.5344420987309197	6.006120012713256	-18.6910773339487	-13.06607107505045	73.42149185703781	121.499673483207	0	0	92.06145201195632	-18.61187402455747	-8.469683232533852	105.2866007094653	111.5471517447402	0	0
